<svg id="visual" viewBox="0 0 1300 750" width="1300" height="750" xmlns="http://www.w3.org/2000/svg" xmlns:xlink="http://www.w3.org/1999/xlink" version="1.1"><rect x="0" y="0" width="1300" height="750" fill="#FFFFFF"></rect><path d="M0 475L31 478.7C62 482.3 124 489.7 185.8 511.7C247.7 533.7 309.3 570.3 371.2 595.3C433 620.3 495 633.7 557 627C619 620.3 681 593.7 743 591.7C805 589.7 867 612.3 928.8 606.7C990.7 601 1052.3 567 1114.2 547.3C1176 527.7 1238 522.3 1269 519.7L1300 517L1300 751L1269 751C1238 751 1176 751 1114.2 751C1052.3 751 990.7 751 928.8 751C867 751 805 751 743 751C681 751 619 751 557 751C495 751 433 751 371.2 751C309.3 751 247.7 751 185.8 751C124 751 62 751 31 751L0 751Z" fill="#48A7FF" stroke-linecap="round" stroke-linejoin="miter"></path></svg>